<?xml version="1.0" encoding="utf-8"?>
<!-- Generator: Adobe Illustrator 18.0.0, SVG Export Plug-In . SVG Version: 6.00 Build 0)  -->
<!DOCTYPE svg PUBLIC "-//W3C//DTD SVG 1.1//EN" "http://www.w3.org/Graphics/SVG/1.1/DTD/svg11.dtd">
<svg version="1.1" id="Layer_1" xmlns="http://www.w3.org/2000/svg" xmlns:xlink="http://www.w3.org/1999/xlink" x="0px" y="0px"
	 viewBox="0 0 28.1 29.1" enable-background="new 0 0 28.1 29.1" xml:space="preserve">
<g id="XMLID_2392_">
	<g id="XMLID_2393_">
		<path id="XMLID_2398_" fill="#2DABE2" d="M14.4,4.1c3.5,0,3.9,0,5.3,0.1c1.3,0.1,2,0.3,2.4,0.4c0.6,0.2,1,0.5,1.5,1
			c0.5,0.5,0.7,0.9,1,1.5c0.2,0.5,0.4,1.1,0.4,2.4c0.1,1.4,0.1,1.8,0.1,5.3c0,3.5,0,3.9-0.1,5.3c-0.1,1.3-0.3,2-0.4,2.4
			c-0.2,0.6-0.5,1-1,1.5c-0.5,0.5-0.9,0.7-1.5,1c-0.5,0.2-1.1,0.4-2.4,0.4c-1.4,0.1-1.8,0.1-5.3,0.1c-3.5,0-3.9,0-5.3-0.1
			c-1.3-0.1-2-0.3-2.4-0.4c-0.6-0.2-1-0.5-1.5-1c-0.5-0.5-0.7-0.9-1-1.5C4.1,22,3.8,21.3,3.8,20c-0.1-1.4-0.1-1.8-0.1-5.3
			c0-3.5,0-3.9,0.1-5.3c0.1-1.3,0.3-2,0.4-2.4c0.2-0.6,0.5-1,1-1.5c0.5-0.5,0.9-0.7,1.5-1c0.5-0.2,1.1-0.4,2.4-0.4
			C10.5,4.1,10.9,4.1,14.4,4.1 M14.4,1.8c-3.5,0-4,0-5.4,0.1C7.6,1.9,6.7,2.1,5.9,2.4C5,2.8,4.3,3.2,3.5,3.9C2.8,4.7,2.4,5.4,2,6.2
			C1.7,7.1,1.5,8,1.4,9.4c-0.1,1.4-0.1,1.8-0.1,5.4c0,3.5,0,4,0.1,5.4c0.1,1.4,0.3,2.3,0.6,3.2c0.3,0.9,0.8,1.6,1.5,2.3
			c0.7,0.7,1.4,1.2,2.3,1.5c0.8,0.3,1.8,0.5,3.2,0.6c1.4,0.1,1.8,0.1,5.4,0.1c3.5,0,4,0,5.4-0.1c1.4-0.1,2.3-0.3,3.2-0.6
			c0.9-0.3,1.6-0.8,2.3-1.5c0.7-0.7,1.2-1.4,1.5-2.3c0.3-0.8,0.5-1.8,0.6-3.2c0.1-1.4,0.1-1.8,0.1-5.4c0-3.5,0-4-0.1-5.4
			C27.2,8,27,7.1,26.7,6.2c-0.3-0.9-0.8-1.6-1.5-2.3c-0.7-0.7-1.4-1.2-2.3-1.5c-0.8-0.3-1.8-0.5-3.2-0.6C18.3,1.8,17.9,1.8,14.4,1.8
			"/>
		<path id="XMLID_2395_" fill="#2DABE2" d="M14.4,8.1c-3.7,0-6.7,3-6.7,6.7s3,6.7,6.7,6.7c3.7,0,6.7-3,6.7-6.7S18.1,8.1,14.4,8.1
			 M14.4,19.1c-2.4,0-4.3-1.9-4.3-4.3c0-2.4,1.9-4.3,4.3-4.3c2.4,0,4.3,1.9,4.3,4.3C18.7,17.1,16.8,19.1,14.4,19.1"/>
		<path id="XMLID_2394_" fill="#2DABE2" d="M22.9,7.8c0,0.9-0.7,1.6-1.6,1.6c-0.9,0-1.6-0.7-1.6-1.6s0.7-1.6,1.6-1.6
			C22.2,6.3,22.9,7,22.9,7.8"/>
	</g>
</g>
</svg>
