<?xml version="1.0" encoding="utf-8"?>
<!-- Generator: Adobe Illustrator 18.0.0, SVG Export Plug-In . SVG Version: 6.00 Build 0)  -->
<!DOCTYPE svg PUBLIC "-//W3C//DTD SVG 1.1//EN" "http://www.w3.org/Graphics/SVG/1.1/DTD/svg11.dtd">
<svg version="1.1" id="Layer_1" xmlns="http://www.w3.org/2000/svg" xmlns:xlink="http://www.w3.org/1999/xlink" x="0px" y="0px"
	 viewBox="0 0 75.8 74.9" enable-background="new 0 0 75.8 74.9" xml:space="preserve">
<g id="XMLID_1449_">
	<path id="XMLID_1451_" fill="#2BA9E0" d="M38.3,72.8L38.3,72.8C18.5,72.8,2.5,56.8,2.5,37l0,0c0-19.8,16.1-35.9,35.9-35.9h0
		c19.8,0,35.9,16.1,35.9,35.9l0,0C74.2,56.8,58.1,72.8,38.3,72.8z"/>
	<path id="XMLID_1450_" fill="#FFFFFF" d="M19.2,49c3.5,2.2,7.6,3.5,12,3.5c14.6,0,22.8-12.3,22.3-23.3c1.5-1.1,2.9-2.5,3.9-4.1
		c-1.4,0.6-2.9,1-4.5,1.2c1.6-1,2.9-2.5,3.4-4.3c-1.5,0.9-3.2,1.6-5,1.9c-1.4-1.5-3.5-2.5-5.7-2.5c-5.1,0-8.8,4.7-7.6,9.6
		c-6.5-0.3-12.3-3.4-16.2-8.2c-2.1,3.5-1.1,8.1,2.4,10.5c-1.3,0-2.5-0.4-3.6-1c-0.1,3.6,2.5,7,6.3,7.8c-1.1,0.3-2.3,0.4-3.5,0.1
		c1,3.1,3.9,5.4,7.3,5.4C27.5,48.3,23.4,49.5,19.2,49z"/>
</g>
</svg>
